<svg width="41" height="42" viewBox="0 0 41 42" fill="none" xmlns="http://www.w3.org/2000/svg">
<g filter="url(#filter0_dd_518_7920)">
<path d="M23.3518 7.08959L27.8171 16.023C28.386 17.161 27.5587 18.5 26.2867 18.5H23.3518M23.3518 7.08959L22.0304 4.44613C21.3999 3.18462 19.6001 3.18462 18.9696 4.44613L13.1828 16.023C12.614 17.161 13.4413 18.5 14.7133 18.5H17.6482M23.3518 7.08959L20.5 9.9422M17.6482 18.5H23.3518M17.6482 18.5L14.7965 15.6474M23.3518 18.5L17.6482 12.7948M20.5 9.9422L27.772 17.2163M20.5 9.9422L17.6482 12.7948M13.228 17.2163L14.7965 15.6474M14.7965 15.6474L17.6482 12.7948" stroke="#686B6E" stroke-width="1.5" stroke-linecap="round" stroke-linejoin="round"/>
</g>
<defs>
<filter id="filter0_dd_518_7920" x="-1.5" y="-1" width="44" height="44" filterUnits="userSpaceOnUse" color-interpolation-filters="sRGB">
<feFlood flood-opacity="0" result="BackgroundImageFix"/>
<feColorMatrix in="SourceAlpha" type="matrix" values="0 0 0 0 0 0 0 0 0 0 0 0 0 0 0 0 0 0 127 0" result="hardAlpha"/>
<feMorphology radius="4" operator="erode" in="SourceAlpha" result="effect1_dropShadow_518_7920"/>
<feOffset dy="4"/>
<feGaussianBlur stdDeviation="3"/>
<feColorMatrix type="matrix" values="0 0 0 0 0.407843 0 0 0 0 0.419608 0 0 0 0 0.431373 0 0 0 0.16 0"/>
<feBlend mode="normal" in2="BackgroundImageFix" result="effect1_dropShadow_518_7920"/>
<feColorMatrix in="SourceAlpha" type="matrix" values="0 0 0 0 0 0 0 0 0 0 0 0 0 0 0 0 0 0 127 0" result="hardAlpha"/>
<feMorphology radius="3" operator="erode" in="SourceAlpha" result="effect2_dropShadow_518_7920"/>
<feOffset dy="10"/>
<feGaussianBlur stdDeviation="7.5"/>
<feColorMatrix type="matrix" values="0 0 0 0 0.407843 0 0 0 0 0.419608 0 0 0 0 0.431373 0 0 0 0.16 0"/>
<feBlend mode="normal" in2="effect1_dropShadow_518_7920" result="effect2_dropShadow_518_7920"/>
<feBlend mode="normal" in="SourceGraphic" in2="effect2_dropShadow_518_7920" result="shape"/>
</filter>
</defs>
</svg>
