<svg width="88" height="24" viewBox="0 0 88 24" fill="none" xmlns="http://www.w3.org/2000/svg">
<path d="M52.9144 8.1816C52.7752 8.2896 50.3176 9.6744 50.3176 12.7536C50.3176 16.3152 53.4448 17.5752 53.5384 17.6064C53.524 17.6832 53.0416 19.332 51.8896 21.012C50.8624 22.4904 49.7896 23.9664 48.1576 23.9664C46.5256 23.9664 46.1056 23.0184 44.2216 23.0184C42.3856 23.0184 41.7328 23.9976 40.24 23.9976C38.7472 23.9976 37.7056 22.6296 36.508 20.9496C35.1208 18.9768 34 15.912 34 13.0032C34 8.3376 37.0336 5.8632 40.0192 5.8632C41.6056 5.8632 42.928 6.9048 43.924 6.9048C44.872 6.9048 46.3504 5.8008 48.1552 5.8008C48.8392 5.8008 51.2968 5.8632 52.9144 8.1816ZM47.2984 3.8256C48.0448 2.94 48.5728 1.7112 48.5728 0.4824C48.5728 0.312 48.5584 0.1392 48.5272 0C47.3128 0.0456 45.868 0.8088 44.9968 1.8192C44.3128 2.5968 43.6744 3.8256 43.6744 5.0712C43.6744 5.2584 43.7056 5.4456 43.72 5.5056C43.7968 5.52 43.9216 5.5368 44.0464 5.5368C45.136 5.5368 46.5064 4.8072 47.2984 3.8256Z" fill="white"/>
</svg>
