<svg width="88" height="20" viewBox="0 0 88 20" fill="none" xmlns="http://www.w3.org/2000/svg">
<g clip-path="url(#clip0_518_91)">
<path d="M44.898 8.18184V12.0546H69.0613C68.0003 13.3001 64.8162 14.3546 60.0407 15.0637L74.6122 17.5819C83.102 15.8365 88 13.2729 88 10.2274C88 9.51832 87.7144 8.83644 87.1836 8.18195L44.898 8.18184Z" fill="#4285F4"/>
<path d="M19.7358 11.9034L16.4494 12.4637L4.81647 14.4819C12.2042 17.7455 27.3461 20.0001 44.897 20.0001C57.0193 20.0001 67.1824 19.1092 74.6112 17.5819L60.0398 15.0637C56.0398 15.6637 50.9376 16.0274 44.897 16.0274C33.2236 16.0274 23.3054 14.2729 19.7541 11.9092L19.7358 11.9034Z" fill="#34A853"/>
<path d="M4.81655 5.51822C1.75548 6.86362 0.000549316 8.38183 0.000549316 10C0.000549316 11.6182 1.75548 13.1364 4.81655 14.4818C4.81655 14.4908 19.7557 11.8999 19.7557 11.8999C18.8577 11.2999 18.3269 10.6636 18.3269 9.99989C18.3269 9.33617 18.8577 8.69984 19.7557 8.09984L4.81655 5.51822Z" fill="#FBBC05"/>
<path d="M44.898 3.98184C51.5103 3.98184 57.3878 4.49092 62.0817 5.47275L74.9388 2.60914C67.1428 0.990976 57.0207 0 44.898 0C27.347 0 12.2042 2.24546 4.81647 5.51822L19.7551 8.10005C23.306 5.73638 33.2245 3.98184 44.898 3.98184Z" fill="#EA4335"/>
</g>
<defs>
<clipPath id="clip0_518_91">
<rect width="88" height="20" fill="white"/>
</clipPath>
</defs>
</svg>
