<svg width="16" height="16" viewBox="0 0 16 16" fill="none" xmlns="http://www.w3.org/2000/svg">
<path fill-rule="evenodd" clip-rule="evenodd" d="M1.33334 8C1.33334 4.3181 4.31811 1.33333 8.00001 1.33333C11.6819 1.33333 14.6667 4.3181 14.6667 8C14.6667 11.6819 11.6819 14.6667 8.00001 14.6667C4.31811 14.6667 1.33334 11.6819 1.33334 8ZM8.00001 4.66666C7.63182 4.66666 7.33334 4.96514 7.33334 5.33333C7.33334 5.70152 7.63182 6 8.00001 6H8.00668C8.37487 6 8.67334 5.70152 8.67334 5.33333C8.67334 4.96514 8.37487 4.66666 8.00668 4.66666H8.00001ZM8.66668 8C8.66668 7.63181 8.3682 7.33333 8.00001 7.33333C7.63182 7.33333 7.33334 7.63181 7.33334 8V10.6667C7.33334 11.0349 7.63182 11.3333 8.00001 11.3333C8.3682 11.3333 8.66668 11.0349 8.66668 10.6667V8Z" fill="#686B6E"/>
</svg>
